<svg xmlns="http://www.w3.org/2000/svg" viewBox="0 0 64 64"><g id="Layer_44" data-name="Layer 44"><path d="M52,10.5H41.12a1.5,1.5,0,0,0,0,3h7.26L36.8,25.08a1.5,1.5,0,1,0,2.12,2.12L50.5,15.62v7.26a1.5,1.5,0,0,0,3,0V12A1.5,1.5,0,0,0,52,10.5Z" id="id_101" style="fill: rgb(36, 112, 44);"></path><path d="M15.62,13.5h7.26a1.5,1.5,0,0,0,0-3H12A1.5,1.5,0,0,0,10.5,12V22.88a1.5,1.5,0,0,0,3,0V15.62L25.08,27.2a1.5,1.5,0,1,0,2.12-2.12Z" id="id_102" style="fill: rgb(34, 107, 42);"></path><path d="M25.08,36.8,13.5,48.38V41.12a1.5,1.5,0,0,0-3,0V52A1.5,1.5,0,0,0,12,53.5H22.88a1.5,1.5,0,0,0,0-3H15.62L27.2,38.92A1.5,1.5,0,0,0,25.08,36.8Z" id="id_103" style="fill: rgb(35, 110, 43);"></path><path d="M52,39.62a1.5,1.5,0,0,0-1.5,1.5v7.26L38.92,36.8a1.5,1.5,0,0,0-2.12,2.12L48.38,50.5H41.12a1.5,1.5,0,0,0,0,3H52A1.5,1.5,0,0,0,53.5,52V41.12A1.5,1.5,0,0,0,52,39.62Z" id="id_104" style="fill: rgb(34, 107, 42);"></path></g></svg>